<?xml version="1.0" encoding="UTF-8"?>
<svg width="600" height="300" viewBox="0 0 600 300" fill="none" xmlns="http://www.w3.org/2000/svg">
  <!-- Background -->
  <rect width="600" height="300" rx="8" fill="#F9FAFB" />
  
  <!-- Dashboard Container -->
  <rect x="20" y="20" width="560" height="260" rx="6" fill="white" stroke="#E5E7EB" stroke-width="1" />
  
  <!-- Header -->
  <rect x="20" y="20" width="560" height="40" rx="6 6 0 0" fill="#F3F4F6" />
  <text x="40" y="45" font-family="Arial" font-size="14" font-weight="bold" fill="#374151">Form Analytics Dashboard</text>
  
  <!-- Charts Area -->
  <rect x="40" y="80" width="240" height="120" rx="4" fill="#F9FAFB" stroke="#E5E7EB" stroke-width="1" />
  
  <!-- Bar Chart -->
  <rect x="60" y="160" width="20" height="30" rx="2" fill="#6366F1" />
  <rect x="90" y="140" width="20" height="50" rx="2" fill="#6366F1" />
  <rect x="120" y="120" width="20" height="70" rx="2" fill="#6366F1" />
  <rect x="150" y="100" width="20" height="90" rx="2" fill="#6366F1" />
  <rect x="180" y="130" width="20" height="60" rx="2" fill="#6366F1" />
  <rect x="210" y="110" width="20" height="80" rx="2" fill="#6366F1" />
  
  <line x1="60" y1="190" x2="230" y2="190" stroke="#9CA3AF" stroke-width="1" />
  
  <text x="140" y="100" font-family="Arial" font-size="12" font-weight="bold" fill="#374151">Submissions</text>
  
  <!-- Pie Chart -->
  <circle cx="445" cy="140" r="60" fill="none" stroke="#E5E7EB" stroke-width="1" />
  
  <!-- Pie Segments -->
  <path d="M445 140 L445 80 A60 60 0 0 1 498.5 117.5 Z" fill="#6366F1" />
  <path d="M445 140 L498.5 117.5 A60 60 0 0 1 498.5 162.5 Z" fill="#4ADE80" />
  <path d="M445 140 L498.5 162.5 A60 60 0 0 1 445 200 Z" fill="#F59E0B" />
  <path d="M445 140 L445 200 A60 60 0 0 1 391.5 162.5 Z" fill="#EF4444" />
  <path d="M445 140 L391.5 162.5 A60 60 0 0 1 391.5 117.5 Z" fill="#8B5CF6" />
  <path d="M445 140 L391.5 117.5 A60 60 0 0 1 445 80 Z" fill="#EC4899" />
  
  <text x="445" y="80" font-family="Arial" font-size="12" font-weight="bold" fill="#374151" text-anchor="middle">Conversion Rate</text>
  
  <!-- Stats Cards -->
  <rect x="40" y="220" width="120" height="50" rx="4" fill="#F0FDF4" stroke="#D1FAE5" stroke-width="1" />
  <text x="50" y="240" font-family="Arial" font-size="10" fill="#065F46">Total Submissions</text>
  <text x="50" y="260" font-family="Arial" font-size="14" font-weight="bold" fill="#065F46">1,234</text>
  
  <rect x="180" y="220" width="120" height="50" rx="4" fill="#EFF6FF" stroke="#DBEAFE" stroke-width="1" />
  <text x="190" y="240" font-family="Arial" font-size="10" fill="#1E40AF">Conversion Rate</text>
  <text x="190" y="260" font-family="Arial" font-size="14" font-weight="bold" fill="#1E40AF">32.5%</text>
  
  <rect x="320" y="220" width="120" height="50" rx="4" fill="#FEF2F2" stroke="#FEE2E2" stroke-width="1" />
  <text x="330" y="240" font-family="Arial" font-size="10" fill="#B91C1C">Bounce Rate</text>
  <text x="330" y="260" font-family="Arial" font-size="14" font-weight="bold" fill="#B91C1C">28.1%</text>
  
  <rect x="460" y="220" width="120" height="50" rx="4" fill="#F5F3FF" stroke="#EDE9FE" stroke-width="1" />
  <text x="470" y="240" font-family="Arial" font-size="10" fill="#5B21B6">Avg. Time on Form</text>
  <text x="470" y="260" font-family="Arial" font-size="14" font-weight="bold" fill="#5B21B6">2m 45s</text>
</svg>